HIERARCHY
ROOT pelvis
{
	OFFSET 0.000000 0.000000 0.000000
	CHANNELS 6 Xposition Yposition Zposition Zrotation Xrotation Yrotation
	JOINT lfemur
	{
		OFFSET 11.446000 0.000000 0.000000
		CHANNELS 3 Zrotation Xrotation Yrotation
		JOINT ltibia
		{
			OFFSET 0.000000 -42.030400 0.000000
			CHANNELS 3 Zrotation Xrotation Yrotation
			JOINT lfoot
			{
				OFFSET 0.000000 -39.930200 0.000000
				CHANNELS 3 Zrotation Xrotation Yrotation
				JOINT ltoes
				{
					OFFSET 0.000000 0.000000 11.775800
					CHANNELS 3 Zrotation Xrotation Yrotation
					End Site
					{
					    OFFSET 0.000000 0.000000 5.000000
					}
				}
			}
		}
	}
	JOINT rfemur
	{
		OFFSET -11.446000 0.000000 0.000000
		CHANNELS 3 Zrotation Xrotation Yrotation
		JOINT rtibia
		{
			OFFSET 0.000000 -42.030400 0.000000
			CHANNELS 3 Zrotation Xrotation Yrotation
			JOINT rfoot
			{
				OFFSET 0.000000 -39.930200 0.000000
				CHANNELS 3 Zrotation Xrotation Yrotation
				JOINT rtoes
				{
					OFFSET 0.000000 0.000000 11.775800
					CHANNELS 3 Zrotation Xrotation Yrotation
					End Site
					{
					    OFFSET 0.000000 0.000000 5.000000
					}
				}
			}
		}
	}
	JOINT thorax
	{
		OFFSET 0.000000 11.255600 -5.000000
		CHANNELS 3 Zrotation Xrotation Yrotation
		JOINT head
		{
			OFFSET 0.000000 43.799300 0.000000
			CHANNELS 3 Zrotation Xrotation Yrotation
			End Site
			{
			    OFFSET 0.000000 5.000000 0.000000
			}
		}
		JOINT lclavicle
		{
			OFFSET 0.000000 39.863000 0.000000
			CHANNELS 3 Zrotation Xrotation Yrotation
			JOINT lhumerus
			{
				OFFSET 17.380600 4.958300 0.000000
				CHANNELS 3 Zrotation Xrotation Yrotation
				JOINT lradius
				{
					OFFSET 0.000000 -27.561300 0.000000
					CHANNELS 3 Zrotation Xrotation Yrotation
					JOINT lhand
					{
						OFFSET 0.000000 -26.933000 0.000000
						CHANNELS 3 Zrotation Xrotation Yrotation
						End Site
						{
						    OFFSET 0.000000 -5.000000 0.000000
						}
					}
				}
			}
		}
		JOINT rclavicle
		{
			OFFSET 0.000000 39.863000 0.000000
			CHANNELS 3 Zrotation Xrotation Yrotation
			JOINT rhumerus
			{
				OFFSET -17.380600 4.958300 0.000000
				CHANNELS 3 Zrotation Xrotation Yrotation
				JOINT rradius
				{
					OFFSET 0.000000 -27.561300 0.000000
					CHANNELS 3 Zrotation Xrotation Yrotation
					JOINT rhand
					{
						OFFSET 0.000000 -26.933000 0.000000
						CHANNELS 3 Zrotation Xrotation Yrotation
						End Site
						{
						    OFFSET 0.000000 -5.000000 0.000000
						}
					}
				}
			}
		}
	}
}
MOTION
Frames: 9
Frame Time:	0.0333333
100.362700 86.761700 6.480200 9.228589 -5.919046 -124.696542 -1.666320 -23.480652 -0.188826 -0.000000 26.740848 -0.000000 0.000000 1.635146 12.121858 -0.000000 -1.367615 -0.000000 -4.184397 -10.454897 2.025366 -0.000000 20.356644 -0.000000 -0.000000 2.080025 5.603603 -0.000000 -29.580179 -0.000000 -6.596009 7.640905 2.329342 11.310299 24.962737 14.982476 -18.865314 0.000000 -0.337066 32.639641 10.144853 -7.798108 -180.000037 -67.539189 160.492326 21.722861 -5.788327 -0.000000 24.589834 -0.000000 -1.745144 -41.554346 6.009407 27.953891 180.000037 -74.070391 -178.441529 4.407139 -4.975564 -0.000000 
101.972400 86.606200 6.190100 9.364548 -6.913836 -124.724878 -1.632967 -25.137798 -0.413240 -0.000000 27.163728 -0.000000 0.000000 2.503527 11.940012 -0.000000 -1.385646 -0.000000 -4.360640 -11.746482 1.034617 -0.000000 20.085253 -0.000000 -0.000000 1.091626 6.038281 -0.000000 -29.580910 0.000000 -7.388404 8.029487 2.055503 10.877226 23.612665 15.320228 -18.756471 -0.000000 -0.966970 31.563447 11.785203 -7.515611 180.000029 -71.194347 160.808741 23.185670 -6.099008 0.000000 24.161306 -0.000000 -1.789380 -41.473756 5.065745 28.182464 -180.000036 -76.608344 -177.221947 3.200797 -4.566099 0.000000 
103.711300 86.351500 5.948500 9.857049 -8.074556 -124.204352 -1.558692 -27.617712 -0.283068 -0.000000 28.038627 0.000000 -0.000000 3.462174 11.307516 -0.000000 -1.404070 -0.000000 -4.296293 -13.906000 -0.553526 0.000000 20.876425 -0.000000 -0.000000 -0.729400 5.426016 0.000000 -29.577652 -0.000000 -8.142868 8.359613 1.526153 9.990506 21.878909 16.372811 -18.346726 0.000000 -2.019732 30.163996 13.548261 -7.408707 -180.000027 -75.228304 161.342033 23.739346 -6.576870 0.000000 23.821633 0.000000 -2.129118 -41.061576 3.877740 28.550810 -180.000036 -79.802824 -177.812577 3.095629 -4.529156 0.000000 
105.443800 86.001300 5.762200 10.291244 -9.020695 -123.332533 -1.270794 -30.294881 0.918302 0.000000 29.489262 0.000000 0.000000 4.351039 9.954423 -0.000000 -1.422789 0.000000 -4.304371 -16.006320 -1.912704 -0.000000 22.063121 -0.000000 -0.000000 -2.848312 5.061400 0.000000 -29.574025 0.000000 -8.575056 8.913183 1.183986 9.033385 19.480468 16.683800 -17.552583 -0.000000 -3.464209 28.370252 14.717729 -7.768289 180.000033 -80.566541 160.561357 22.842000 -6.184362 -0.000000 23.338679 -0.000000 -2.187135 -40.249176 2.918432 28.747692 -180.000036 -84.071957 -177.252308 1.979210 -4.151540 -0.000000 
107.020400 85.626000 5.511800 10.874247 -9.060696 -122.120735 -0.067994 -33.010652 2.574907 -0.000000 31.877521 -0.000000 0.000000 4.892682 7.805601 -0.000000 -1.428097 -0.000000 -3.571797 -17.996444 -2.323932 -0.000000 24.140918 -0.000000 -0.000000 -4.441267 4.613196 0.000000 -29.570624 -0.000000 -7.799169 9.747678 0.843083 7.544364 16.950382 16.894717 -16.826962 -0.000000 -5.849094 26.890074 15.003225 -8.332359 -180.000023 -87.464108 164.188843 20.241662 -6.077297 0.000000 22.552928 -0.000000 -0.629450 -38.331178 2.219346 27.965664 180.000036 -89.826904 -178.758663 0.609752 -3.687799 -0.000000 
108.416100 85.087900 5.246600 13.213953 -7.771701 -119.144171 1.970989 -37.666639 2.137988 -0.000000 35.948912 -0.000000 0.000000 4.821800 6.111323 -0.000000 -1.441734 -0.000000 -1.200830 -20.516926 -3.101426 -0.000000 26.248836 0.000000 0.000000 -5.341511 2.995319 -0.000000 -29.565470 -0.000000 -4.569461 9.479345 -0.859153 5.683948 15.134828 17.309987 -16.557645 0.000000 -8.640068 26.913490 12.913937 -10.313132 0.000003 -85.202996 -10.061622 19.651326 -5.237447 -0.000000 22.185268 0.000000 2.105078 -36.523666 -0.623504 27.736967 -0.000000 -82.175920 0.360981 -2.726843 -2.556173 -0.000000 
108.815200 85.159200 4.797800 9.778631 -7.884687 -118.997122 0.275358 -34.211435 2.019925 0.000000 34.584810 -0.000000 0.000000 6.497414 5.981772 -0.000000 -1.467137 -0.000000 -2.750847 -18.423999 -3.670997 -0.000000 27.934079 -0.000000 0.000000 -6.411959 3.086298 0.000000 -29.562342 -0.000000 -6.047272 12.073267 -0.100219 4.502659 14.612591 17.132318 -15.477204 -0.000000 -10.078972 28.104105 6.892687 -14.487397 0.000001 -79.518455 -8.317004 20.827483 -5.261565 -0.000000 21.675737 -0.000000 4.717490 -34.827358 -7.200056 29.546420 -0.000000 -73.218520 2.480079 -5.608144 -1.583763 0.000000 
109.244600 84.971000 4.385700 8.448694 -7.493866 -118.107939 0.007782 -33.412514 1.925292 -0.000000 35.138257 -0.000000 0.000000 6.938421 5.538735 0.000000 -1.482562 0.000000 -2.855150 -17.697875 -4.188712 -0.000000 29.342953 -0.000000 0.000000 -7.285526 2.605778 -0.000000 -29.559084 -0.000000 -5.915419 11.950065 0.664053 3.651005 15.586475 16.169029 -14.376501 -0.000000 -10.694953 29.134939 -1.176118 -15.971787 -0.000004 -78.709759 -9.805163 21.647679 -6.186196 -0.000000 21.291954 0.000000 6.577035 -33.757624 -15.775274 32.014848 -0.000000 -67.724720 4.372263 -9.688241 -0.199754 -0.000000 
109.382700 84.715300 3.874800 6.943676 -6.571116 -116.799948 -0.075961 -32.361874 1.362671 -0.000000 36.271690 0.000000 -0.000000 6.797961 4.865535 -0.000000 -1.500184 -0.000000 -2.668988 -16.208802 -4.962825 -0.000000 30.639214 0.000000 -0.000000 -8.159314 2.029946 0.000000 -29.557192 -0.000000 -5.290475 11.528701 1.878068 3.074928 17.798634 14.894846 -12.790998 0.000000 -9.923219 29.007007 -12.435692 -15.484743 0.000001 -80.161533 -10.302485 22.177133 -7.161406 -0.000000 20.519735 -0.000000 8.152400 -33.527537 -24.626217 31.944165 0.000000 -68.713328 4.965285 -10.283538 -0.003045 -0.000000 
